<svg width="20" height="21" viewBox="0 0 20 21" fill="currentColor" xmlns="http://www.w3.org/2000/svg">
<mask id="mask0_143_3149" style="mask-type:alpha" maskUnits="userSpaceOnUse" x="0" y="0" width="20" height="21">
<rect x="20" y="20.5" width="20" height="20" transform="rotate(-180 20 20.5)" fill="currentColor"/>
</mask>
<g mask="url(#mask0_143_3149)">
<path d="M6.52092 9.66658L15.8334 9.66658C16.0695 9.66658 16.2674 9.74644 16.4272 9.90616C16.5869 10.0659 16.6667 10.2638 16.6667 10.4999C16.6667 10.736 16.5869 10.9339 16.4272 11.0937C16.2674 11.2534 16.0695 11.3332 15.8334 11.3332L6.52092 11.3332L10.6042 15.4166C10.7709 15.5832 10.8508 15.7777 10.8438 15.9999C10.8369 16.2221 10.7501 16.4166 10.5834 16.5832C10.4167 16.736 10.2223 16.8159 10.0001 16.8228C9.77786 16.8298 9.58342 16.7499 9.41675 16.5832L3.91675 11.0832C3.83342 10.9999 3.77439 10.9096 3.73967 10.8124C3.70494 10.7152 3.68758 10.611 3.68758 10.4999C3.68758 10.3888 3.70494 10.2846 3.73967 10.1874C3.77439 10.0902 3.83342 9.99991 3.91675 9.91658L9.41675 4.41658C9.56953 4.2638 9.7605 4.18741 9.98967 4.18741C10.2188 4.18741 10.4167 4.2638 10.5834 4.41658C10.7501 4.58324 10.8334 4.78116 10.8334 5.01033C10.8334 5.23949 10.7501 5.43741 10.5834 5.60408L6.52092 9.66658Z" fill="currentColor"/>
</g>
</svg>